<?xml version="1.0" standalone="no"?><!DOCTYPE svg PUBLIC "-//W3C//DTD SVG 1.1//EN" "http://www.w3.org/Graphics/SVG/1.1/DTD/svg11.dtd"><svg t="1771237725062" class="icon" viewBox="0 0 1024 1024" version="1.1" xmlns="http://www.w3.org/2000/svg" p-id="14268" xmlns:xlink="http://www.w3.org/1999/xlink" width="200" height="200"><path d="M128 256a128 128 0 0 1 128-128h512a128 128 0 0 1 128 128v512a128 128 0 0 1-128 128H256a128 128 0 0 1-128-128V256z m128-42.666667a42.666667 42.666667 0 0 0-42.666667 42.666667v512a42.666667 42.666667 0 0 0 42.666667 42.666667h512a42.666667 42.666667 0 0 0 42.666667-42.666667V256a42.666667 42.666667 0 0 0-42.666667-42.666667H256z" fill="#2A2D32" p-id="14269"></path><path d="M326.229333 466.773333a21.333333 21.333333 0 0 1 30.208 0L469.333333 579.626667l219.562667-219.605334a21.333333 21.333333 0 0 1 30.208 0l30.165333 30.165334a21.333333 21.333333 0 0 1 0 30.208l-264.832 264.832a21.333333 21.333333 0 0 1-30.208 0L296.106667 527.104a21.333333 21.333333 0 0 1 0-30.208l30.165333-30.165333z" fill="#2A2D32" p-id="14270"></path></svg>